<svg width="107" height="94" viewBox="0 0 107 94" fill="none" xmlns="http://www.w3.org/2000/svg">
<path d="M77.9929 87.5784L8.78841 66.9056C3.75514 65.4039 0.898255 60.1066 2.40002 55.0733L16.221 8.7884C17.7227 3.75513 23.02 0.898256 28.0532 2.40002L97.2578 23.0728C102.291 24.5746 105.148 29.8718 103.646 34.9051L89.8252 81.19C88.3176 86.2174 83.0203 89.0802 77.9929 87.5784Z" stroke="#15A570" stroke-width="4" stroke-miterlimit="10" stroke-linecap="round"/>
<path d="M4.03076 49.6001L91.4559 75.7168" stroke="#15A570" stroke-width="4" stroke-miterlimit="10" stroke-linecap="round"/>
<path d="M47.9575 70.2435C47.5821 71.4989 46.2563 72.2146 45.0009 71.8391C43.7455 71.4637 43.0299 70.1379 43.4053 68.8825C43.7808 67.6272 45.1065 66.9115 46.3619 67.2869C47.6173 67.6624 48.333 68.9881 47.9575 70.2435Z" fill="#15A570"/>
<path d="M53.1986 80.1789L33.5979 74.3245L30.9569 83.1664L50.5576 89.0208L53.1986 80.1789Z" stroke="#15A570" stroke-width="4" stroke-miterlimit="10" stroke-linecap="round"/>
<path d="M23.6887 81.501L57.5255 91.6086" stroke="#15A570" stroke-width="4" stroke-miterlimit="10" stroke-linecap="round"/>
</svg>
