<svg width="79" height="78" viewBox="0 0 79 78" fill="none" xmlns="http://www.w3.org/2000/svg">
<path d="M10.6872 21.6883C10.6872 24.361 8.51635 26.5319 5.84363 26.5319C3.1709 26.5319 1 24.361 1 21.6883C1 19.0156 3.1709 16.8447 5.84363 16.8447C8.51635 16.8447 10.6872 19.01 10.6872 21.6883Z" stroke="#15A570" stroke-width="2" stroke-miterlimit="10" stroke-linecap="round" stroke-linejoin="round"/>
<path d="M57.6801 63.6963C60.3551 63.6963 62.5237 61.5277 62.5237 58.8527C62.5237 56.1776 60.3551 54.009 57.6801 54.009C55.005 54.009 52.8364 56.1776 52.8364 58.8527C52.8364 61.5277 55.005 63.6963 57.6801 63.6963Z" stroke="#15A570" stroke-width="2" stroke-miterlimit="10" stroke-linecap="round" stroke-linejoin="round"/>
<path d="M39.4443 48.8949C45.1494 48.8949 49.7743 44.27 49.7743 38.5649C49.7743 32.8598 45.1494 28.2349 39.4443 28.2349C33.7391 28.2349 29.1143 32.8598 29.1143 38.5649C29.1143 44.27 33.7391 48.8949 39.4443 48.8949Z" stroke="#15A570" stroke-width="2" stroke-miterlimit="10" stroke-linecap="round" stroke-linejoin="round"/>
<path d="M57.4433 38.5648L53.9981 44.5869L52.1712 51.2913L45.4724 53.1125L39.4447 56.5634L33.4169 53.1125L26.7126 51.2913L24.8913 44.5869L21.4404 38.5648L24.8913 32.5371L26.7126 25.8327L33.4169 24.0114L39.4447 20.5605L45.4724 24.0114L52.1712 25.8327L53.9981 32.5371L57.4433 38.5648Z" stroke="#15A570" stroke-width="2" stroke-miterlimit="10" stroke-linecap="round" stroke-linejoin="round"/>
<path d="M52.8363 58.8528C52.8363 56.18 55.0072 54.0091 57.6799 54.0091C59.1234 54.0091 60.4203 54.6463 61.3056 55.65C64.9933 50.936 67.198 45.0098 67.198 38.5592C67.198 23.2277 54.7704 10.8 39.4389 10.8C24.1073 10.8 11.6797 23.2277 11.6797 38.5592C11.6797 53.8907 24.1073 66.3184 39.4389 66.3184C44.8294 66.3184 49.8534 64.779 54.1106 62.1232C53.3269 61.2605 52.8363 60.1158 52.8363 58.8528Z" stroke="#15A570" stroke-width="2" stroke-miterlimit="10" stroke-linecap="round" stroke-linejoin="round"/>
<path d="M39.4444 1C26.4924 1 15.0685 7.55777 8.31899 17.5326C9.73429 18.3784 10.6872 19.9234 10.6872 21.6939C10.6872 24.3666 8.51633 26.5375 5.84361 26.5375C5.18388 26.5375 4.558 26.4022 3.9885 26.1654C2.62958 30.0504 1.88525 34.2174 1.88525 38.5648C1.88525 59.3094 18.7054 76.1296 39.45 76.1296C60.1947 76.1296 77.0148 59.3094 77.0148 38.5648C77.0148 17.8201 60.189 1 39.4444 1Z" stroke="#15A570" stroke-width="2" stroke-miterlimit="10" stroke-linecap="round" stroke-linejoin="round"/>
</svg>
