<svg width="83" height="87" viewBox="0 0 83 87" fill="none" xmlns="http://www.w3.org/2000/svg">
<path d="M41.28 61.8353C62.9737 61.8353 80.56 53.4992 80.56 43.2161C80.56 32.933 62.9737 24.5969 41.28 24.5969C19.5862 24.5969 2 32.933 2 43.2161C2 53.4992 19.5862 61.8353 41.28 61.8353Z" stroke="#15A570" stroke-width="3" stroke-miterlimit="10" stroke-linecap="round" stroke-linejoin="round"/>
<path d="M57.1649 52.9214C68.4457 34.3927 70.4707 15.0375 61.6879 9.69032C52.9051 4.34312 36.6404 15.0288 25.3597 33.5574C14.0789 52.086 12.0539 71.4412 20.8367 76.7884C29.6195 82.1356 45.8842 71.45 57.1649 52.9214Z" stroke="#15A570" stroke-width="3" stroke-miterlimit="10" stroke-linecap="round" stroke-linejoin="round"/>
<path d="M61.6801 76.7801C70.4629 71.4329 68.4379 52.0777 57.1571 33.5491C45.8764 15.0205 29.6117 4.33485 20.8289 9.68205C12.0461 15.0293 14.0711 34.3844 25.3519 52.9131C36.6326 71.4417 52.8973 82.1273 61.6801 76.7801Z" stroke="#15A570" stroke-width="3" stroke-miterlimit="10" stroke-linecap="round" stroke-linejoin="round"/>
<path d="M41.2799 48.1447C44.002 48.1447 46.2086 45.938 46.2086 43.2159C46.2086 40.4938 44.002 38.2871 41.2799 38.2871C38.5578 38.2871 36.3511 40.4938 36.3511 43.2159C36.3511 45.938 38.5578 48.1447 41.2799 48.1447Z" stroke="#15A570" stroke-width="3" stroke-miterlimit="10" stroke-linecap="round" stroke-linejoin="round"/>
</svg>
