<svg width="270" height="111" viewBox="0 0 270 111" fill="none" xmlns="http://www.w3.org/2000/svg">
<rect width="270" height="111" fill="#04AF4E"/>
<mask id="mask0_1_2" style="mask-type:alpha" maskUnits="userSpaceOnUse" x="0" y="0" width="100" height="101">
<path d="M96 0.103516H4C1.79086 0.103516 0 1.89438 0 4.10352V96.1035C0 98.3127 1.79086 100.104 4 100.104H96C98.2091 100.104 100 98.3127 100 96.1035V4.10352C100 1.89438 98.2091 0.103516 96 0.103516Z" fill="#D9D9D9"/>
</mask>
<g mask="url(#mask0_1_2)">
<path d="M24.5086 76.3581C52.5958 76.3581 75.3649 53.589 75.3649 25.5018C75.3649 -2.58536 52.5958 -25.3545 24.5086 -25.3545C-3.57856 -25.3545 -26.3477 -2.58536 -26.3477 25.5018C-26.3477 53.589 -3.57856 76.3581 24.5086 76.3581Z" stroke="white" stroke-width="22"/>
</g>
<path d="M200.364 52.0117C203.678 52.0117 206.364 49.3254 206.364 46.0117C206.364 42.698 203.678 40.0117 200.364 40.0117C197.05 40.0117 194.364 42.698 194.364 46.0117C194.364 49.3254 197.05 52.0117 200.364 52.0117Z" fill="white"/>
<path d="M237.692 64.0871C238.971 64.0871 240.007 63.0507 240.007 61.7721C240.007 60.4935 238.971 59.4571 237.692 59.4571C236.413 59.4571 235.377 60.4935 235.377 61.7721C235.377 63.0507 236.413 64.0871 237.692 64.0871Z" fill="white"/>
<path d="M234.929 37.6975C235.96 37.6975 236.796 36.8615 236.796 35.8302C236.796 34.7989 235.96 33.9629 234.929 33.9629C233.898 33.9629 233.062 34.7989 233.062 35.8302C233.062 36.8615 233.898 37.6975 234.929 37.6975Z" fill="white"/>
</svg>
