<svg width="17" height="17" viewBox="0 0 17 17" fill="none" xmlns="http://www.w3.org/2000/svg">
<mask id="mask0_1_2" style="mask-type:luminance" maskUnits="userSpaceOnUse" x="0" y="0" width="17" height="17">
<path d="M16.9823 0.339844H0.9823V16.3398H16.9823V0.339844Z" fill="white"/>
</mask>
<g mask="url(#mask0_1_2)">
<path d="M15.1489 4.02734H12.4823L12.119 3.1554C11.8336 2.4707 11.1689 2.02734 10.427 2.02734H7.47302C6.77429 2.02734 6.14624 2.41602 5.83362 3.04065L5.34033 4.02734H2.81567C1.80432 4.02734 0.9823 4.84937 0.9823 5.86072V12.8607C0.9823 13.8721 1.80432 14.694 2.81567 14.694H14.9823C15.9283 14.694 16.9823 13.9413 16.9823 12.8607V5.86072C16.9823 4.84937 16.1603 4.02734 15.1489 4.02734Z" fill="white"/>
<path d="M12.6489 9.02697C12.6489 11.052 11.0073 12.6936 8.9823 12.6936C6.95728 12.6936 5.31567 11.052 5.31567 9.02697C5.31567 7.00194 6.95728 5.36034 8.9823 5.36034C11.0073 5.36034 12.6489 7.00194 12.6489 9.02697Z" fill="white"/>
<path d="M8.9823 12.6936C6.96033 12.6936 5.31567 11.049 5.31567 9.02697C5.31567 7.00499 6.96033 5.36034 8.9823 5.36034C11.0043 5.36034 12.6489 7.00499 12.6489 9.02697C12.6489 11.049 11.0043 12.6936 8.9823 12.6936ZM8.9823 6.36034C7.5116 6.36034 6.31567 7.55626 6.31567 9.02697C6.31567 10.4977 7.5116 11.6936 8.9823 11.6936C10.453 11.6936 11.6489 10.4977 11.6489 9.02697C11.6489 7.55626 10.453 6.36034 8.9823 6.36034Z" fill="#04AF4E"/>
<path d="M14.9823 14.694H2.81567C1.80432 14.694 0.9823 13.8721 0.9823 12.8607V5.86072C0.9823 4.84937 1.80432 4.02734 2.81567 4.02734H5.34033L5.83362 3.04065C6.14624 2.41602 6.77429 2.02734 7.47302 2.02734H10.427C11.1697 2.02734 11.8336 2.4707 12.1196 3.1554L12.4823 4.02734H15.1489C16.1603 4.02734 16.9823 4.84937 16.9823 5.86072V12.8607C16.9823 13.9413 15.9283 14.694 14.9823 14.694ZM2.81567 5.02734C2.35632 5.02734 1.9823 5.40137 1.9823 5.86072V12.8607C1.9823 13.3201 2.35632 13.694 2.81567 13.694H14.9823C15.4869 13.694 15.9823 13.2814 15.9823 12.8607V5.86072C15.9823 5.40137 15.6083 5.02734 15.1489 5.02734H12.1489C11.947 5.02734 11.765 4.90601 11.6876 4.71997L11.1957 3.54065C11.0657 3.22864 10.7643 3.02734 10.4263 3.02734H7.47302C7.15564 3.02734 6.86963 3.20398 6.72766 3.48804L6.09631 4.75073C6.0116 4.92004 5.83826 5.02734 5.64893 5.02734H2.81567Z" fill="#04AF4E"/>
<path d="M14.3149 7.36168C13.9476 7.36168 13.6483 7.06237 13.6483 6.69506C13.6483 6.32775 13.9476 6.02831 14.3149 6.02831C14.6823 6.02831 14.9817 6.32775 14.9817 6.69506C14.9817 7.06237 14.6823 7.36168 14.3149 7.36168ZM14.3149 6.36168C14.131 6.36168 13.9817 6.51098 13.9817 6.69506C13.9817 6.87902 14.131 7.02831 14.3149 7.02831C14.499 7.02831 14.6483 6.87902 14.6483 6.69506C14.6483 6.51098 14.499 6.36168 14.3149 6.36168Z" fill="#04AF4E"/>
</g>
</svg>
