<svg width="25" height="26" viewBox="0 0 25 26" fill="none" xmlns="http://www.w3.org/2000/svg">
<g clip-path="url(#clip0_1_4)">
<path d="M21.9219 3.94824H20.9375V3.01074C20.9375 1.84763 19.9912 0.901367 18.8281 0.901367H2.14062C0.977516 0.901367 0.03125 1.84763 0.03125 3.01074V14.4014C0.03125 15.5645 0.977516 16.5107 2.14062 16.5107H3.125V17.4482C3.125 18.6114 4.07127 19.5576 5.23438 19.5576H12.4682C13.2136 22.0033 15.1684 24.0982 17.885 24.8743C18.011 24.9103 18.1448 24.9105 18.2713 24.8743C21.6425 23.9111 24.0312 20.8283 24.0312 17.2382C24.0312 16.7799 24.0312 6.5738 24.0312 6.05762C24.0312 4.89451 23.085 3.94824 21.9219 3.94824ZM22.625 6.05762V8.07324H12.7344V7.27637C12.7344 6.88805 12.4196 6.57324 12.0312 6.57324H6.78125C6.39294 6.57324 6.07812 6.88805 6.07812 7.27637V8.07324H4.53125V6.05762C4.53125 5.66991 4.84667 5.35449 5.23438 5.35449H21.9219C22.3096 5.35449 22.625 5.66991 22.625 6.05762ZM7.48438 7.97949H11.3281V9.57324H7.48438V7.97949ZM2.14062 15.1045C1.75292 15.1045 1.4375 14.7891 1.4375 14.4014V3.01074C1.4375 2.62304 1.75292 2.30762 2.14062 2.30762H18.8281C19.2158 2.30762 19.5312 2.62304 19.5312 3.01074V3.94824H5.23438C4.07127 3.94824 3.125 4.89451 3.125 6.05762V15.1045H2.14062ZM5.23438 18.1514C4.84667 18.1514 4.53125 17.8359 4.53125 17.4482V9.47949H6.07812V10.2764C6.07812 10.6647 6.39294 10.9795 6.78125 10.9795H12.0312C12.4196 10.9795 12.7344 10.6647 12.7344 10.2764V9.47949H22.625V12.5928C21.1258 12.4634 19.6906 11.8767 18.5283 10.9081C18.2675 10.6908 17.8888 10.6908 17.628 10.9081C16.3432 11.9788 14.6989 12.6201 12.8281 12.6201C12.4398 12.6201 12.125 12.9349 12.125 13.3232V15.1982H11.3281C10.9398 15.1982 10.625 15.5131 10.625 15.9014C10.625 16.2897 10.9398 16.6045 11.3281 16.6045H12.125C12.125 17.2595 12.1147 17.6045 12.1769 18.1514H5.23438ZM22.625 17.2382C22.625 20.0732 20.7653 22.6045 18.0781 23.4638C15.391 22.6045 13.5312 20.0732 13.5312 17.2382V14.0035C15.17 13.8848 16.7495 13.3069 18.0781 12.3392C19.4068 13.3069 20.9863 13.8848 22.625 14.0035V17.2382Z" fill="#04AF4E"/>
<path d="M8.32812 15.1982H6.82812C6.43981 15.1982 6.125 15.5131 6.125 15.9014C6.125 16.2897 6.43981 16.6045 6.82812 16.6045H8.32812C8.71644 16.6045 9.03125 16.2897 9.03125 15.9014C9.03125 15.5131 8.71644 15.1982 8.32812 15.1982Z" fill="#04AF4E"/>
<path d="M17.0753 16.9979C16.8008 16.7234 16.3555 16.7234 16.0809 16.9979C15.8064 17.2724 15.8064 17.7177 16.0809 17.9923L17.5809 19.4923C17.8555 19.7669 18.3007 19.7669 18.5753 19.4923L21.4816 16.586C21.7561 16.3115 21.7561 15.8662 21.4816 15.5917C21.207 15.3171 20.7618 15.3171 20.4872 15.5917L18.0781 18.0007L17.0753 16.9979Z" fill="#04AF4E"/>
</g>
<defs>
<clipPath id="clip0_1_4">
<rect width="25" height="25" fill="white" transform="translate(0 0.5)"/>
</clipPath>
</defs>
</svg>
