<svg width="12" height="13" viewBox="0 0 12 13" fill="none" xmlns="http://www.w3.org/2000/svg">
<g clip-path="url(#clip0_2_2)">
<path d="M11.7752 11.2827L7.08557 6.59303L11.7752 1.9034C12.0749 1.60363 12.0749 1.11763 11.7751 0.817901C11.4754 0.518124 10.9894 0.518124 10.6896 0.817901L6.00001 5.50748L1.31038 0.81785C1.01066 0.518073 0.524609 0.518073 0.224833 0.81785C-0.0749443 1.11763 -0.0749443 1.60363 0.224833 1.9034L4.91446 6.59303L0.224833 11.2827C-0.0749443 11.5824 -0.0749443 12.0684 0.224833 12.3682C0.374721 12.5181 0.571178 12.593 0.767583 12.593C0.96404 12.593 1.1605 12.5181 1.31038 12.3682L6.00001 7.67858L10.6896 12.3682C10.8395 12.5181 11.036 12.593 11.2324 12.593C11.4289 12.593 11.6254 12.5181 11.7752 12.3682C12.075 12.0684 12.075 11.5824 11.7752 11.2827Z" fill="#05AF4F"/>
</g>
<defs>
<clipPath id="clip0_2_2">
<rect width="12" height="13" fill="white"/>
</clipPath>
</defs>
</svg>
