<svg width="25" height="23" viewBox="0 0 25 23" fill="none" xmlns="http://www.w3.org/2000/svg">
<g clip-path="url(#clip0_1_8)">
<path d="M1.89207 11.7726V0.843692C1.89207 0.453793 2.20816 0.137695 2.59806 0.137695H21.5132C21.9031 0.137695 22.2192 0.453793 22.2192 0.843692V12.6439C22.5598 12.6935 22.8927 12.8257 23.1873 13.0443C24.1158 13.7028 24.3354 15.1762 23.5576 16.0849L20.3777 19.94C18.4093 22.2438 16.3183 22.526 13.2097 22.526C10.5421 22.526 9.3495 22.5378 7.02466 22.008L4.76086 21.4666C4.39379 21.9792 3.81106 22.3112 3.15594 22.3112H2.04075C0.932713 22.3112 0.03125 21.3616 0.03125 20.1943V13.8832C0.0312023 12.7686 0.853264 11.8531 1.89207 11.7726ZM5.06538 13.2249L6.00605 12.7471C7.5527 11.9664 9.34089 11.9375 10.912 12.6679C11.3406 12.8365 12.2755 13.4022 12.7604 13.3833H16.0246C17.1073 13.3833 17.9882 14.2641 17.9882 15.3469V15.8617C17.9942 15.8553 18.0006 15.8493 18.0066 15.8428L20.3375 13.3126C20.4786 13.1595 20.6371 13.0314 20.8072 12.9286V5.92423H15.0296V8.51222C15.0296 8.90212 14.7135 9.21822 14.3236 9.21822H9.86874C9.47884 9.21822 9.16274 8.90212 9.16274 8.51222V5.92423H3.30401V11.7726C4.1289 11.8363 4.81672 12.4264 5.06538 13.2249ZM13.6177 5.92423H10.5748V7.80623H13.6177V5.92423ZM3.30406 4.51224H9.16274V1.54969H3.30401L3.30406 4.51224ZM10.5747 1.54969V4.51228H13.6176V1.54969H10.5747ZM15.0297 1.54969V4.51228H20.8072V1.54969H15.0297ZM7.35233 20.6346C9.49998 21.1264 10.7934 21.1065 13.1844 21.1065C16.1025 21.1065 17.5125 21.0594 19.2884 19.0414L22.4683 15.1864C23.0214 14.4661 22.0196 13.6159 21.376 14.2692L19.045 16.7994C18.429 17.4495 17.6538 17.8072 16.6983 17.8283H10.2357C9.84577 17.8283 9.52967 17.5122 9.52967 17.1223C9.52967 16.7324 9.84577 16.4163 10.2357 16.4163H16.5762V15.3468C16.5762 15.0426 16.3288 14.7952 16.0246 14.7952H12.7605C12.0251 14.8478 10.9637 14.2338 10.3167 13.9483C9.14006 13.4012 7.80074 13.4228 6.64389 14.0067L5.16535 14.7577V20.1114L7.35233 20.6346ZM1.44319 20.1942C1.44319 20.583 1.71124 20.8992 2.0407 20.8992H3.15589C3.48536 20.8992 3.75336 20.583 3.75336 20.1942V13.8832C3.75336 13.4945 3.48531 13.1782 3.15589 13.1782H2.0407C1.71124 13.1782 1.44319 13.4944 1.44319 13.8832V20.1942Z" fill="#04AF4E"/>
</g>
<defs>
<clipPath id="clip0_1_8">
<rect width="25" height="23" fill="white"/>
</clipPath>
</defs>
</svg>
