<svg width="17" height="17" viewBox="0 0 17 17" fill="none" xmlns="http://www.w3.org/2000/svg">
<g clip-path="url(#clip0_1_10)">
<path d="M16.2691 2.5047L14.8193 1.0547C14.1568 0.392233 13.079 0.392264 12.4165 1.0547C11.7928 1.67848 2.26608 11.2059 1.62943 11.8426C1.56161 11.9104 1.51618 12.0006 1.49999 12.0887L0.775053 16.0037C0.746959 16.1555 0.795334 16.3114 0.90449 16.4205C1.01377 16.5298 1.16971 16.5781 1.3213 16.55L5.23595 15.825C5.32642 15.8081 5.41536 15.7622 5.48204 15.6955L16.2691 4.9076C16.9331 4.2436 16.9332 3.16879 16.2691 2.5047ZM1.82099 15.504L2.25952 13.1357L4.18908 15.0654L1.82099 15.504ZM5.15061 14.7011L2.62377 12.1741L11.8491 2.9481L14.3759 5.47513L5.15061 14.7011ZM15.6062 4.24469L15.0388 4.81222L12.5119 2.2852L13.0794 1.71767C13.3763 1.42073 13.8594 1.4207 14.1564 1.71767L15.6062 3.16766C15.9039 3.46532 15.9039 3.94701 15.6062 4.24469Z" fill="#04AF4E"/>
</g>
<defs>
<clipPath id="clip0_1_10">
<rect width="17" height="17" fill="white"/>
</clipPath>
</defs>
</svg>
