<svg width="48" height="16" viewBox="0 0 48 16" fill="none" xmlns="http://www.w3.org/2000/svg">
<path d="M18.2188 1.03443L12.1089 15.6147H8.12281L5.11929 3.98342C5.09142 3.70965 4.99388 3.44759 4.83597 3.22222C4.67806 2.99685 4.46504 2.81569 4.21724 2.69602C3.03414 2.13093 1.78553 1.71473 0.5 1.45694L0.592931 1.03443H7.0064C7.42534 1.03477 7.83036 1.18478 8.14844 1.45741C8.46652 1.73005 8.67671 2.10737 8.74111 2.52132L10.3296 10.957L14.2525 1.03443H18.2176H18.2188ZM33.8312 10.8492C33.8486 7.00802 28.5106 6.79491 28.549 5.07507C28.5589 4.5497 29.0571 3.99459 30.1474 3.85457C31.4225 3.73292 32.7067 3.95766 33.8647 4.50508L34.5263 1.41606C33.3986 0.993024 32.2044 0.774423 30.9999 0.770508C27.2728 0.770508 24.6497 2.75303 24.6273 5.58928C24.6026 7.68704 26.4996 8.85673 27.9295 9.55433C29.3978 10.2693 29.8897 10.7253 29.8835 11.3659C29.8736 12.3447 28.7113 12.7722 27.6272 12.7908C26.278 12.8199 24.944 12.5025 23.7526 11.8689L23.0698 15.0645C24.4073 15.5823 25.8299 15.8454 27.2641 15.8402C31.2292 15.8402 33.8164 13.8787 33.8312 10.8492ZM43.672 15.6097H47.16L44.1156 1.03443H40.894C40.5494 1.03058 40.2116 1.13034 39.9243 1.32079C39.6371 1.51124 39.4137 1.78359 39.2832 2.10251L33.6293 15.6085H37.5869L38.3725 13.4314H43.2049L43.672 15.6097ZM39.4591 10.4452L41.4416 4.97221L42.5841 10.4452H39.4591ZM23.5989 1.02823L20.4863 15.6147H16.7146L19.8296 1.03443L23.5989 1.02823Z" fill="#1A2ADF"/>
</svg>
